PathFileType	4	(X/Y/Z)	D:\Research_projects\MuscleProsody\BulkSports2Dtrack\RetrackedSports2D\p1_sample60_cam1\p1_sample60_cam1_Sports2D\p1_sample60_cam1_Sports2D_px_person00.trc
DataRate	CameraRate	NumFrames	NumMarkers	Units	OrigDataRate	OrigDataStartFrame	OrigNumFrames
60	60	12	22	m	60	0	780
Frame#	Time	Hip			RHip			RKnee			RAnkle			RBigToe			RSmallToe			RHeel			LHip			LKnee			LAnkle			LBigToe			LSmallToe			LHeel			Neck			Head			Nose			RShoulder			RElbow			RWrist			LShoulder			LElbow			LWrist		
		X1	Y1	Z1	X2	Y2	Z2	X3	Y3	Z3	X4	Y4	Z4	X5	Y5	Z5	X6	Y6	Z6	X7	Y7	Z7	X8	Y8	Z8	X9	Y9	Z9	X10	Y10	Z10	X11	Y11	Z11	X12	Y12	Z12	X13	Y13	Z13	X14	Y14	Z14	X15	Y15	Z15	X16	Y16	Z16	X17	Y17	Z17	X18	Y18	Z18	X19	Y19	Z19	X20	Y20	Z20	X21	Y21	Z21	X22	Y22	Z22
0	0.0	320.9597677612844	542.2692075301553	0.0	291.99136959146705	541.2928843399317	0.0	282.3079247572356	681.8102027574947	0.0	271.60436534911196	808.3733263406092	0.0	315.5992950280185	843.8488791044286	0.0	293.02178378060336	852.3884021782704	0.0	256.58953602532733	818.0199507704647	0.0	348.82543363626866	542.3801209288943	0.0	334.9140249289321	674.3069872041399	0.0	307.0226410154118	782.6517719456198	0.0	338.1208565673639	825.5409963785548	0.0	345.59987375558296	812.6972946557206	0.0	294.12249564601973	795.4937346127889	0.0	331.6761364329699	321.1879803860461	0.0	361.73438023393305	222.46496086867108	0.0	362.81760700041855	282.5380807016559	0.0	268.38397214264637	357.6770159626026	0.0	245.83355036374232	465.00750163837114	0.0	259.788382446409	572.2785912209545	0.0	369.27316902945637	365.1989548825128	0.0	372.47889391092366	463.9399102893403	0.0	390.6934082437973	547.6292889599235	0.0
1	0.016666666666666666	320.8232949724597	542.6905717630116	0.0	291.95278190439825	542.8299317148949	0.0	282.0953797076903	682.7139116642412	0.0	271.8186999067457	808.0625082899453	0.0	315.60034009624974	843.9452338925054	0.0	293.0543205128186	852.1175651832137	0.0	257.21314302825243	817.5466702894624	0.0	348.24326292559573	544.0182437604557	0.0	334.01537943449233	675.3081752923143	0.0	306.6777775882247	782.5395705998243	0.0	337.8112526140168	825.5535427264206	0.0	345.06141190842845	812.9171720528159	0.0	294.35068892671796	794.9575473179556	0.0	331.5151544234232	321.1714150612391	0.0	361.2416255051734	222.94972168023918	0.0	362.97537917772763	282.4732897636386	0.0	268.41925237183887	357.9408005176359	0.0	245.8287484438633	465.2661538344689	0.0	259.5099367961573	571.7101941757264	0.0	368.84208385037704	365.4527477955858	0.0	372.5829814321577	464.5914355934699	0.0	390.7740455855613	547.5769356970496	0.0
2	0.03333333333333333	320.6853554197372	543.0865957436641	0.0	291.90692131705094	544.2326446424569	0.0	281.8893106095672	683.5417421308449	0.0	272.0158363943009	807.7652716046197	0.0	315.5881627402669	844.0342080039204	0.0	293.08651535735703	851.8664867846437	0.0	257.8121929024948	817.1181048040055	0.0	347.68632435538285	545.5239823685454	0.0	333.16992722169425	676.223111580363	0.0	306.3384453978691	782.4317934998301	0.0	337.5217699555237	825.5637717039647	0.0	344.56089821042633	813.1229467454195	0.0	294.5530624955968	794.4642103866087	0.0	331.37025455699893	321.1372693232028	0.0	360.781619583303	223.3848726158891	0.0	363.11570830435403	282.40774491951294	0.0	268.4514076000491	358.1789508051036	0.0	245.8153104767838	465.50308837874894	0.0	259.2527463915516	571.1823405172348	0.0	368.43783864140664	365.68717776643047	0.0	372.6733202460072	465.2003860233851	0.0	390.8477463330409	547.5259406214499	0.0
3	0.05	320.5488851126572	543.4388119087628	0.0	291.852241251313	545.4184574938972	0.0	281.6954355875446	684.2380183342025	0.0	272.18485457601014	807.4878352546094	0.0	315.55488254897784	844.1091308377901	0.0	293.1136170822905	851.6462396083456	0.0	258.3679821807447	816.762359057992	0.0	347.1712824722613	546.8159027094216	0.0	332.4187170137564	676.9928643758217	0.0	306.01591504281583	782.3348278034535	0.0	337.26649451313375	825.5682163769009	0.0	344.11868160012204	813.3038567142416	0.0	294.7139478395065	794.0421618874535	0.0	331.2490157194686	321.0785846199984	0.0	360.38126175563815	223.74488036858926	0.0	363.22988308504404	282.34479320168543	0.0	268.4817106649854	358.37895986346354	0.0	245.79115170824176	465.7144537734413	0.0	259.0335775394509	570.7218986524333	0.0	368.0802166581215	365.89181652210794	0.0	372.74029607762185	465.740601466172	0.0	390.90797718094177	547.477031363947	0.0
4	0.06666666666666667	320.41870771107784	543.7330397802759	0.0	291.79065268567865	546.3487895776353	0.0	281.5178490896944	684.7740903512864	0.0	272.3213926112651	807.2408949219678	0.0	315.5007151611895	844.1637077715651	0.0	293.13501453254224	851.4634709579796	0.0	258.8671710614065	816.4970821411705	0.0	346.7100136832118	547.8528927882785	0.0	331.78484749611835	677.5930389743993	0.0	305.7205593958864	782.257720114665	0.0	337.0519018098688	825.568922852879	0.0	343.7420838886612	813.4554342192087	0.0	294.8310437827918	793.7102727218078	0.0	331.1523882198395	320.9981948807676	0.0	360.05507651350877	224.0236120475673	0.0	363.31490677040244	282.2894212036707	0.0	268.51123312967843	358.53737481045823	0.0	245.75884876459028	465.90607092300405	0.0	258.8601233295375	570.3427005504136	0.0	367.7779748299181	366.06323815675756	0.0	372.78183987178846	466.2029640935176	0.0	390.9528347098504	547.4319624986473	0.0
5	0.08333333333333333	320.29952497208507	543.9653860176086	0.0	291.7261031013392	547.025005116966	0.0	281.3572032215046	685.1505462635555	0.0	272.42550510207644	807.0369466488294	0.0	315.430778540435	844.1927427402844	0.0	293.1517142991796	851.3205241455489	0.0	259.302247311501	816.3305661459215	0.0	346.3106653667324	548.6319990127447	0.0	331.27221723671676	678.0312409874396	0.0	305.45583471906366	782.2090322054843	0.0	336.8814259331991	825.5713459550373	0.0	343.43303302164975	813.5763087028032	0.0	294.9088488084956	793.478462914794	0.0	331.07726590648866	320.9062998856573	0.0	359.80521835853114	224.22510825046567	0.0	363.3713092327863	282.2458920038954	0.0	268.53852519373316	358.65576567905975	0.0	245.72314004443538	466.0843206759584	0.0	258.7314925855292	570.0482901912968	0.0	367.53286056877346	366.202934498732	0.0	372.8003207505846	466.58695097075986	0.0	390.98269896936006	547.3936179261336	0.0
6	0.1	320.1941792917004	544.1384100739232	0.0	291.6636694099602	547.4648095457829	0.0	281.2136323514709	685.3798656400921	0.0	272.4981988175625	806.8830037391355	0.0	315.3523112049803	844.1932542931354	0.0	293.16435112597856	851.2170482625518	0.0	259.67002720462824	816.2603035751029	0.0	345.9782331048659	549.1667273287328	0.0	330.8737060275382	678.3239557022102	0.0	305.2189701001693	782.1910069028208	0.0	336.7572860581301	825.5794770902248	0.0	343.1928776635249	813.6655527164871	0.0	294.95142291933917	793.3468435506362	0.0	331.0211582095517	320.81377438620405	0.0	359.6285025856447	224.35383149889256	0.0	363.40206440192367	282.21527557415664	0.0	268.56121962607887	358.7360732691925	0.0	245.68851522401064	466.25119861699375	0.0	258.64262080987794	569.8365023364247	0.0	367.3429666103667	366.31229236823566	0.0	372.79818689831905	466.89301821155124	0.0	390.9985842333288	547.3650380251848	0.0
7	0.11666666666666667	320.10370331110744	544.2531432794284	0.0	291.6094715219242	547.6879020394028	0.0	281.0896561895451	685.4734798663566	0.0	272.54154426729815	806.7788842978805	0.0	315.27360740377776	844.1657861450615	0.0	293.1733886996294	851.1509799975021	0.0	259.9714911285448	816.2734703134519	0.0	345.7140250626921	549.4743723673429	0.0	330.58018541836117	678.483135984938	0.0	305.00712234469603	782.1999951355484	0.0	336.67780615838495	825.5947301679003	0.0	343.019859931017	813.7237171080192	0.0	294.96224526763444	793.3049392751643	0.0	330.98250489220777	320.7270982988909	0.0	359.5204679150017	224.41500542201283	0.0	363.4119855649385	282.1969043874948	0.0	268.57848796655026	358.7809236539492	0.0	245.65929319467745	466.40651982556034	0.0	258.58737411881776	569.7003587419072	0.0	367.20229354318775	366.39065483682833	0.0	372.7784023764567	467.1243573945831	0.0	391.00404910938505	547.3471429649818	0.0
8	0.13333333333333333	320.028234570676	544.3095101998134	0.0	291.568948731566	547.7223002941286	0.0	280.9881034638667	685.4481174176626	0.0	272.56006243373827	806.7220309839963	0.0	315.20183243321856	844.1142113796681	0.0	293.17999366286176	851.1180565877369	0.0	260.2110447469132	816.3522711139134	0.0	345.51598862833794	549.5824511709916	0.0	330.38132308641366	678.5244648040218	0.0	304.82047564481536	782.2313263674152	0.0	336.635829845225	825.6187985811156	0.0	342.90668313136655	813.7553128969507	0.0	294.94823773910673	793.3345092092425	0.0	330.957605208361	320.64873797023773	0.0	359.4735953886994	224.4201228441888	0.0	363.4068588897297	282.1908002356725	0.0	268.5905602044404	358.79658247517386	0.0	245.639491206625	466.5506169589602	0.0	258.5584486199321	569.6277943629728	0.0	367.10000729367175	366.4373013910187	0.0	372.7469668576192	467.2897709782448	0.0	391.00626937311523	547.3371635593304	0.0
9	0.15	319.9681957571157	544.3150926280845	0.0	291.5437957120448	547.611698296194	0.0	280.9098094042227	685.3333590057906	0.0	272.55931230979314	806.7078960498355	0.0	315.13947577962114	844.0441729462493	0.0	293.1848540511122	851.1118912170133	0.0	260.3935568906603	816.478636310622	0.0	345.37969430689844	549.5349128466628	0.0	330.26105052551907	678.4745299022845	0.0	304.6601190219606	782.2806260296712	0.0	336.6221827610631	825.6548397605537	0.0	342.84332510094265	813.7675106563512	0.0	294.9190425226974	793.4144353139211	0.0	330.9405469259829	320.57953436690184	0.0	359.4754211196503	224.38602821352663	0.0	363.3930241328368	282.1970423158715	0.0	268.59686701978353	358.79233023220587	0.0	245.63132248255386	466.68311973532633	0.0	258.54727089826474	569.603719940971	0.0	367.0236833724376	366.4537091246564	0.0	372.710092450231	467.39922345387663	0.0	391.0124599387606	547.329363738772	0.0
10	0.16666666666666666	319.92502828658905	544.2897095059759	0.0	291.5319590879178	547.4134137730495	0.0	280.85347547875443	685.1676497298811	0.0	272.5437763777771	806.7260626764713	0.0	315.08346570971247	843.9618317101175	0.0	293.1855521038777	851.124688520879	0.0	260.52330352877635	816.6348648403078	0.0	345.2977805180096	549.3890803297858	0.0	330.19663356785026	678.3664879579186	0.0	304.52596475051126	782.342649785293	0.0	336.63029232811226	825.7052979854778	0.0	342.81993302311355	813.7663338950905	0.0	294.88268844826916	793.5235927378028	0.0	330.9252645257528	320.5200019367653	0.0	359.51097114390495	224.32993374484886	0.0	363.3774076749124	282.2144120712866	0.0	268.59643657748313	358.7781608747957	0.0	245.63548944798285	466.8023297549173	0.0	258.54569842010125	569.613204133956	0.0	366.96333314078083	366.4444111269012	0.0	372.6693867717767	467.45893692276945	0.0	391.02540991610624	547.3171449703786	0.0
11	0.18333333333333332	319.9002563515664	544.2582704321966	0.0	291.5305267790066	547.1901256170086	0.0	280.8149558728968	684.9914191323038	0.0	272.5168254988153	806.7634998106312	0.0	315.0290106983649	843.8735626534979	0.0	293.17730521533065	851.1483262966699	0.0	260.6067356521917	816.8045760953637	0.0	345.2585523840884	549.2070497136841	0.0	330.16392553577674	678.234606463353	0.0	304.41662450418426	782.4117031404716	0.0	336.65557852535187	825.768975743229	0.0	342.82520569543135	813.7553973285269	0.0	294.8453112980782	793.6411891400337	0.0	330.90568486955715	320.47097746795646	0.0	359.56686181877575	224.26784287496866	0.0	363.3663913469811	282.2411232286286	0.0	268.5893668224644	358.764422806303	0.0	245.6530265603359	466.9078866974663	0.0	258.5467743676115	569.6441809867604	0.0	366.9113081937793	366.41629707763025	0.0	372.6229585294344	467.47425195261167	0.0	391.04278670356683	547.2957956133281	0.0
